<?xml version="1.0" encoding="utf-8"?>
<!-- Generator: Adobe Illustrator 22.0.0, SVG Export Plug-In . SVG Version: 6.00 Build 0)  -->
<svg version="1.1" xmlns="http://www.w3.org/2000/svg" xmlns:xlink="http://www.w3.org/1999/xlink" x="0px" y="0px"
	 viewBox="0 0 2271.8 918.4" style="enable-background:new 0 0 2271.8 918.4;" xml:space="preserve">
<style type="text/css">
	.st0{fill:#FFFFFF;stroke:#000000;stroke-width:4;stroke-miterlimit:10;}
	.st1{font-family:'Monaco';}
	.st2{font-size:18px;}
	.st3{font-size:16px;}
	.st4{fill:#FFFFFF;}
	.st5{fill:none;stroke:#000000;stroke-width:4;stroke-miterlimit:10;}
	.st6{fill:none;stroke:#000000;stroke-width:3;stroke-miterlimit:10;}
	.st7{fill:none;}
	.st8{font-size:30px;}
	.st9{opacity:0.3;fill:#F45151;stroke:#000000;stroke-width:4;stroke-miterlimit:10;}
	.st10{fill:none;stroke:#000000;stroke-miterlimit:10;}
	.st11{fill:none;stroke:#000000;stroke-width:5;stroke-miterlimit:10;}
</style>
<g id="Layer_1">
	<path class="st0" d="M425.8,611.2H171.6c-6.6,0-12-5.4-12-12v-85.3c0-6.6,5.4-12,12-12h254.3c6.6,0,12,5.4,12,12v85.3
		C437.8,605.8,432.4,611.2,425.8,611.2z"/>
	<path class="st0" d="M577.9,834.6H397.2c-6.6,0-12-5.4-12-12v-63.4c0-6.6,5.4-12,12-12h180.7c6.6,0,12,5.4,12,12v63.4
		C589.9,829.2,584.5,834.6,577.9,834.6z"/>
	<path class="st0" d="M542.4,158.9H319.9c-6.6,0-12-5.4-12-12V61.6c0-6.6,5.4-12,12-12h222.5c6.6,0,12,5.4,12,12v85.3
		C554.4,153.5,549,158.9,542.4,158.9z"/>
	<text transform="matrix(1 0 0 1 327.9001 123.1985)"><tspan x="0" y="0" class="st1 st2">name = ’Bacteria’</tspan><tspan x="0" y="21.6" class="st1 st2">taxid= 2</tspan></text>
	<path class="st0" d="M681.7,351.2H469.6c-6.6,0-12-5.4-12-12v-70.7c0-6.6,5.4-12,12-12h212.1c6.6,0,12,5.4,12,12v70.7
		C693.7,345.8,688.3,351.2,681.7,351.2z"/>
	<text transform="matrix(1 0 0 1 464.2866 321.1867)"><tspan x="0" y="0" class="st1 st3">name = ‘Proteobacteria’</tspan><tspan x="0" y="19.2" class="st1 st3">taxid = 1224</tspan></text>
	<g>
		<path class="st0" d="M881.6,581.5h-259c-6.6,0-12-5.4-12-12v-64.8c0-6.6,5.4-12,12-12h259c6.6,0,12,5.4,12,12v64.8
			C893.6,576.1,888.2,581.5,881.6,581.5z"/>
		<text transform="matrix(1 0 0 1 619.3914 556.5364)"><tspan x="0" y="0" class="st1 st3">name = ‘Gammaproteobacteria’</tspan><tspan x="0" y="19.2" class="st1 st3">taxid = 1236</tspan></text>
	</g>
	<g>
		<path class="st4" d="M254.4,497.2c33.2-71.6,292.5-146,292.5-146"/>
		<g>
			<path class="st5" d="M274.8,471.8c70.4-62.8,272-120.6,272-120.6"/>
			<g>
				<path d="M280.2,467l-5.3-16l-0.6,0.2l-8.2,23.9c-4,7.4-7.9,14.8-11.9,22.2c6.7-5.1,13.4-10.1,20.1-15.2l22.4-11.8l0.1-0.5
					L280.2,467z"/>
			</g>
		</g>
	</g>
	<g>
		<path class="st4" d="M559.6,350.3c0,0,98.4,20.9,183.8,143.5"/>
		<g>
			<path class="st5" d="M559.6,350.3c0,0,89.8,19,172.3,127.6"/>
			<g>
				<path d="M729.3,474.5l3.8-9.4l0.3,0.1l3.8,14.7c2,4.6,4.1,9.2,6.1,13.8c-3.8-3.3-7.6-6.6-11.3-10l-12.9-8l-0.1-0.3L729.3,474.5z
					"/>
			</g>
		</g>
	</g>
	<path class="st0" d="M293.3,351.2H104.6c-6.6,0-12-5.4-12-12v-70.7c0-6.6,5.4-12,12-12h188.7c6.6,0,12,5.4,12,12v70.7
		C305.3,345.8,299.9,351.2,293.3,351.2z"/>
	<text transform="matrix(1 0 0 1 99.1244 321.1866)"><tspan x="0" y="0" class="st1 st3">name = ‘Chloroflexi’</tspan><tspan x="0" y="19.2" class="st1 st3">taxid = 200795</tspan></text>
	<path id="SVGID_x5F_1_x5F_" class="st7" d="M246.9,481.7c34-64.4,300-131.4,300-131.4"/>
	<text>	<textPath  xlink:href="#SVGID_x5F_1_x5F_" startOffset="29.57%">
<tspan  class="st1 st2">child_of</tspan>	</textPath>
</text>
	<g>
		<g>
			<path class="st6" d="M206.1,238.8c29.7-28.2,97.9-79.9,198.3-79.9"/>
			<g>
				<path d="M210,235.1l-3.2-12.2l-0.4,0.1l-7.2,17.5c-3.3,5.4-6.6,10.7-9.9,16.1c5.2-3.5,10.5-7,15.7-10.4l17.3-7.8l0.1-0.4
					L210,235.1z"/>
			</g>
		</g>
	</g>
	<path id="SVGID_x5F_2_x5F_" class="st7" d="M178.4,263c0,0,71-102.2,208.8-110.6"/>
	<text>	<textPath  xlink:href="#SVGID_x5F_2_x5F_" startOffset="29.932%">
<tspan  class="st1 st2">    child_of</tspan>	</textPath>
</text>
	<g>
		<g>
			<path class="st6" d="M482.3,158.9c99.6,9.7,145.5,50.9,164.9,76.6"/>
			<g>
				<path d="M643.9,231.1l5.7-11.3l0.4,0.2l3.3,18.7c2.1,5.9,4.2,11.9,6.2,17.8c-4.4-4.5-8.8-9-13.1-13.5l-15.2-11.3l0-0.4
					L643.9,231.1z"/>
			</g>
		</g>
	</g>
	<path id="SVGID_x5F_3_x5F_" class="st7" d="M486.8,152.4C634.2,166.7,664,250.1,664,250.1"/>
	<text>	<textPath  xlink:href="#SVGID_x5F_3_x5F_" startOffset="21.387%">
<tspan  class="st1 st2">child_of</tspan>	</textPath>
</text>
	<path id="SVGID_x5F_4_x5F_" class="st7" d="M599.6,365.8c0,0,85,18.6,158.8,127.9"/>
	<text>	<textPath  xlink:href="#SVGID_x5F_4_x5F_" startOffset="50.324%">
<tspan  class="st1 st2">child_of</tspan>	</textPath>
</text>
	<text transform="matrix(1 0 0 1 389.9962 805.7267)"><tspan x="0" y="0" class="st1 st3">name = ‘Pseudomonas’</tspan><tspan x="0" y="19.2" class="st1 st3">taxid = 286</tspan></text>
	<line class="st5" x1="307.9" y1="97.6" x2="554.4" y2="97.6"/>
	<line class="st5" x1="95.2" y1="298.8" x2="307.9" y2="298.8"/>
	<line class="st5" x1="458.1" y1="300" x2="694.2" y2="300"/>
	<line class="st5" x1="159.6" y1="556.5" x2="437.8" y2="556.5"/>
	<line class="st5" x1="609.6" y1="534.1" x2="892.6" y2="534.1"/>
	<line class="st5" x1="589.9" y1="787.8" x2="385.2" y2="787.8"/>
	<g>
		<g>
			<path class="st5" d="M493.9,731.5c31.7-40.8,126.5-146.6,257.2-149.9"/>
			<g>
				<path d="M496.5,728.1l-3.8-9.4l-0.3,0.1l-3.9,14.7c-2.1,4.6-4.1,9.2-6.2,13.8c3.8-3.3,7.6-6.6,11.4-9.9l12.9-8l0.1-0.3
					L496.5,728.1z"/>
			</g>
		</g>
	</g>
	<text transform="matrix(1 0 0 1 325.1637 85.5964)" class="st1 st8">Superkingdom</text>
	<text transform="matrix(1 0 0 1 152.054 289.7101)" class="st1 st8">Phylum</text>
	<text transform="matrix(1 0 0 1 520.0554 287.7102)" class="st1 st8">Phylum</text>
	<text transform="matrix(1 0 0 1 238.669 538.0084)" class="st1 st8">Class</text>
	<text transform="matrix(1 0 0 1 703.1617 525.0084)" class="st1 st8">Class</text>
	<text transform="matrix(1 0 0 1 424.6596 780.9683)" class="st1 st8">Genus</text>
	<path id="SVGID_x5F_5_x5F_" class="st7" d="M473.2,748.4c0,0,90.5-143.5,241.5-157.1"/>
	<text>	<textPath  xlink:href="#SVGID_x5F_5_x5F_" startOffset="31.25%">
<tspan  class="st1 st2" style="letter-spacing:-20;">    child_of</tspan>	</textPath>
</text>
	<text transform="matrix(1 0 0 1 167.5545 578.3542)"><tspan x="0" y="0" class="st1 st3">name = ‘Betaproteobacteria’</tspan><tspan x="0" y="19.2" class="st1 st3">taxid = 28216</tspan></text>
	<path class="st0" d="M2070.3,178H1918c-6.6,0-12-5.4-12-12V80.7c0-6.6,5.4-12,12-12h152.3c6.6,0,12,5.4,12,12V166
		C2082.3,172.6,2076.9,178,2070.3,178z"/>
	<path class="st0" d="M1824.3,434.7h-158c-6.6,0-12-5.4-12-12v-85.3c0-6.6,5.4-12,12-12h158c6.6,0,12,5.4,12,12v85.3
		C1836.3,429.3,1830.9,434.7,1824.3,434.7z"/>
	<path class="st0" d="M1728.7,790.9h-183c-6.6,0-12-5.4-12-12v-85.3c0-6.6,5.4-12,12-12h183c6.6,0,12,5.4,12,12v85.3
		C1740.7,785.5,1735.3,790.9,1728.7,790.9z"/>
	<g>
		<line class="st4" x1="1999" y1="178" x2="1813.1" y2="325.4"/>
		<g>
			<line class="st5" x1="1999" y1="178" x2="1828.4" y2="313.2"/>
			<g>
				<path d="M1831.8,310.6l9.5,3.5l-0.1,0.3l-14.5,4.4c-4.5,2.2-9,4.4-13.6,6.6c3.2-3.9,6.4-7.8,9.5-11.7l7.6-13.1l0.3-0.1
					L1831.8,310.6z"/>
			</g>
		</g>
	</g>
	<g>
		<line class="st4" x1="1515.7" y1="178" x2="1693.1" y2="325.4"/>
		<g>
			<line class="st5" x1="1515.7" y1="178" x2="1680" y2="314.6"/>
			<g>
				<polygon points="1693.1,325.4 1668.5,317.6 1679.1,313.8 1680.9,302.6 				"/>
			</g>
		</g>
	</g>
	<g>
		<path class="st4" d="M1384.9,178c0,0-375,217.6-311.1,376.2s459.9,182,459.9,182"/>
		<g>
			<path class="st5" d="M1384.9,178c0,0-375,217.6-311.1,376.2c52.7,130.8,331.5,169.7,427.4,179.3"/>
			<g>
				<path d="M1494.1,732.7l-7.5-15.1l0.5-0.3l22.6,11.4c8,2.5,16,5,24,7.5c-8.3,1.1-16.6,2.2-24.9,3.2l-24.2,7.2l-0.5-0.3
					L1494.1,732.7z"/>
			</g>
		</g>
	</g>
	<path class="st0" d="M1546,498.7h-222.5c-6.6,0-12-5.4-12-12v-85.3c0-6.6,5.4-12,12-12H1546c6.6,0,12,5.4,12,12v85.3
		C1558,493.3,1552.6,498.7,1546,498.7z"/>
	<g>
		<path class="st4" d="M1459,498.7c0,0-105.7,119.4,86.7,182.9"/>
		<g>
			<path class="st5" d="M1459,498.7c0,0-93.8,106,56.2,171.4"/>
			<g>
				<path d="M1508.7,667.1l-2.9-16.6l0.6-0.1l18.5,17.3c7,4.7,13.9,9.3,20.9,14c-8.3-1.3-16.6-2.6-24.8-3.9l-25.3,0.1l-0.4-0.4
					L1508.7,667.1z"/>
			</g>
		</g>
	</g>
	<path class="st0" d="M1521.7,178h-164.4c-6.6,0-12-5.4-12-12V80.7c0-6.6,5.4-12,12-12h164.4c6.6,0,12,5.4,12,12V166
		C1533.7,172.6,1528.3,178,1521.7,178z"/>
	<line class="st5" x1="1345.3" y1="123.4" x2="1533.7" y2="123.4"/>
	<line class="st5" x1="1906" y1="123.4" x2="2082.3" y2="123.4"/>
	<line class="st5" x1="1654.3" y1="380" x2="1836.3" y2="380"/>
	<line class="st5" x1="1311.4" y1="444" x2="1558" y2="444"/>
	<line class="st5" x1="1533.7" y1="728.2" x2="1740.7" y2="728.2"/>
	<text transform="matrix(1 0 0 1 1671.1761 366.2338)" class="st1 st8">Compound</text>
	<text transform="matrix(1 0 0 1 1358.1761 430.6989)" class="st1 st8">Compound</text>
	<text transform="matrix(1 0 0 1 1372.592 109.1175)" class="st1 st8">Enzyme</text>
	<text transform="matrix(1 0 0 1 1948.6637 105.6473)" class="st1 st8">Enzyme</text>
	<text transform="matrix(1 0 0 1 1585.3879 717.1176)" class="st1 st8">Enzyme</text>
	<path class="st0" d="M1183.6,561.4H961.1c-6.6,0-12-5.4-12-12v-85.3c0-6.6,5.4-12,12-12h222.5c6.6,0,12,5.4,12,12v85.3
		C1195.6,556,1190.2,561.4,1183.6,561.4z"/>
	<line class="st5" x1="949.1" y1="505.3" x2="1195.6" y2="505.3"/>
	<text transform="matrix(1 0 0 1 995.7897 492.0014)" class="st1 st8">Compound</text>
	<g>
		<path class="st4" d="M1384.9,178c0,0-262.3,164-300,269.5"/>
		<g>
			<path class="st5" d="M1384.9,178c0,0-218.2,136.4-285.2,240.4"/>
			<g>
				<path d="M1103.6,412.4l16.8-0.9l0.1,0.6l-19.3,16.3c-5.4,6.4-10.9,12.7-16.3,19.1c2.3-8.1,4.5-16.1,6.8-24.2l2.8-25.1l0.4-0.3
					L1103.6,412.4z"/>
			</g>
		</g>
	</g>
	<line class="st0" x1="1447.2" y1="178" x2="1430.1" y2="389.4"/>
	<text transform="matrix(1 0 0 1 1918.1761 147.2338)"><tspan x="0" y="0" class="st1 st3">name = ‘nxd1’</tspan><tspan x="0" y="19.2" class="st1 st3">KO   = ‘K18445’</tspan></text>
	<text transform="matrix(1 0 0 1 1356.1761 148.2338)"><tspan x="0" y="0" class="st1 st3">name = ‘ndk, NME’</tspan><tspan x="0" y="19.2" class="st1 st3">KO   = ‘K00940’</tspan></text>
	<text transform="matrix(1 0 0 1 1674.1761 400.2338)"><tspan x="0" y="0" class="st1 st3">name  = ‘ATP’</tspan><tspan x="0" y="19.2" class="st1 st3">cpdID = ‘C00002’</tspan></text>
	<text transform="matrix(1 0 0 1 1358.1761 467.2338)"><tspan x="0" y="0" class="st1 st3">name  = ‘dTDP’</tspan><tspan x="0" y="19.2" class="st1 st3">cpdID = ‘C00363’</tspan></text>
	<text transform="matrix(1 0 0 1 995.1761 530.2338)"><tspan x="0" y="0" class="st1 st3">name  = ‘UDP’</tspan><tspan x="0" y="19.2" class="st1 st3">cpdID = ‘C01346’</tspan></text>
	<text transform="matrix(1 0 0 1 1557.9545 757.2339)"><tspan x="0" y="0" class="st1 st3">name = ‘dTMP’</tspan><tspan x="0" y="19.2" class="st1 st3">KO   = ‘K00943’</tspan></text>
	<g>
		<path class="st5" d="M1157.6,869.7H938c-6.6,0-12-5.4-12-12V713c0-6.6,5.4-12,12-12h219.6c6.6,0,12,5.4,12,12v144.8
			C1169.6,864.3,1164.2,869.7,1157.6,869.7z"/>
		<line class="st5" x1="926" y1="748" x2="1169.6" y2="748"/>
		<text transform="matrix(1 0 0 1 994.818 735.0076)" class="st1 st8">Contig</text>
		<text transform="matrix(1 0 0 1 939.8203 777.0304)"><tspan x="0" y="0" class="st1 st3">id      = ‘contig01079’</tspan><tspan x="0" y="19.2" class="st1 st3">bin     = ‘ko:K00943</tspan><tspan x="0" y="38.4" class="st1 st3">length  = 160</tspan><tspan x="0" y="57.6" class="st1 st3">readnum = 31</tspan><tspan x="0" y="76.8" class="st1 st3">cDNA    = 150</tspan></text>
		<path class="st9" d="M1157.6,869.7H938c-6.6,0-12-5.4-12-12V713c0-6.6,5.4-12,12-12h219.6c6.6,0,12,5.4,12,12v144.8
			C1169.6,864.3,1164.2,869.7,1157.6,869.7z"/>
	</g>
	<g>
		<g>
			<path class="st5" d="M926,824c0,0-189.7,99.6-317.5-5.2"/>
			<g>
				<path d="M611.8,821.5l-1.8,10l-0.4,0l-6.9-13.5c-3-4.1-5.9-8.1-8.9-12.2c4.4,2.4,8.8,4.9,13.2,7.3l14.3,5.1l0.1,0.3L611.8,821.5
					z"/>
			</g>
		</g>
	</g>
	<text transform="matrix(1 0 0 1 659.5424 892.6445)" class="st1 st2">Taxonomic_assignment</text>
	<text transform="matrix(1 0 0 1 1918.1763 506.7921)" class="st1 st2">Functional_assignment</text>
	<text transform="matrix(1 0 0 1 1100.3308 310.9774)" class="st1 st2">produces</text>
	<text transform="matrix(1 0 0 1 1345.3308 283.6802)" class="st1 st2">produces</text>
	<text transform="matrix(1 0 0 1 1592.1761 223.6802)" class="st1 st2">produces</text>
	<text transform="matrix(1 0 0 1 1948.6632 252.7973)" class="st1 st2">produces</text>
	<text transform="matrix(1 0 0 1 1488.3308 579.7689)" class="st1 st2">Substrate_of </text>
	<text transform="matrix(1 0 0 1 1164.7148 629.7689)" class="st1 st2">Substrate_of </text>
	<path class="st11" d="M1169.6,857.7c0,0,643.7,47.8,718.2,0c74.4-47.8,319-210.5,319-423S2082.3,166,2082.3,166"/>
</g>
<g id="Taxonomic_Rank">
</g>
</svg>
